<?xml version="1.0" encoding="utf-8"?>
<!-- Generator: Adobe Illustrator 16.0.0, SVG Export Plug-In . SVG Version: 6.00 Build 0)  -->
<!DOCTYPE svg PUBLIC "-//W3C//DTD SVG 1.1//EN" "http://www.w3.org/Graphics/SVG/1.1/DTD/svg11.dtd" [
	<!ENTITY ns_extend "http://ns.adobe.com/Extensibility/1.0/">
	<!ENTITY ns_ai "http://ns.adobe.com/AdobeIllustrator/10.0/">
	<!ENTITY ns_graphs "http://ns.adobe.com/Graphs/1.0/">
	<!ENTITY ns_vars "http://ns.adobe.com/Variables/1.0/">
	<!ENTITY ns_imrep "http://ns.adobe.com/ImageReplacement/1.0/">
	<!ENTITY ns_sfw "http://ns.adobe.com/SaveForWeb/1.0/">
	<!ENTITY ns_custom "http://ns.adobe.com/GenericCustomNamespace/1.0/">
	<!ENTITY ns_adobe_xpath "http://ns.adobe.com/XPath/1.0/">
]>
<svg version="1.1" id="Layer_1" xmlns:x="&ns_extend;" xmlns:i="&ns_ai;" xmlns:graph="&ns_graphs;"
	 xmlns="http://www.w3.org/2000/svg" xmlns:xlink="http://www.w3.org/1999/xlink" x="0px" y="0px" width="1029.749px"
	 height="292.357px" viewBox="0 0 1029.749 292.357" enable-background="new 0 0 1029.749 292.357" xml:space="preserve">
<metadata>
	<sfw  xmlns="&ns_sfw;">
		<slices></slices>
		<sliceSourceBounds  width="1029.749" height="292.357" x="145.251" y="-764.207" bottomLeftOrigin="true"></sliceSourceBounds>
	</sfw>
</metadata>
<g>
	<g>
		<path d="M292.358,146.179c0,80.733-65.446,146.179-146.183,146.179C65.446,292.357,0,226.912,0,146.179S65.446,0,146.175,0
			C226.912,0,292.358,65.445,292.358,146.179z"/>
		<path fill="#FFFFFF" d="M227.231,100.759l-35.663,51.191h20.864c-2.304,26.585-20.364,49.339-45.887,57.542
			c-5.082-5.867-12.423-9.262-20.37-9.262c-14.886,0-26.995,12.113-26.995,27.001s12.109,27,26.995,27
			c10.658,0,20.127-6.161,24.502-15.635c19.523-5.188,37.172-16.652,49.955-32.507c12.428-15.415,19.769-34.45,20.972-54.14h21.29
			L227.231,100.759z M146.175,222.605c0.817,0,1.596,0.212,2.311,0.627c1.451,0.845,2.317,2.339,2.317,3.999
			c0,1.524-0.755,2.953-2.02,3.818c-0.77,0.527-1.671,0.806-2.608,0.806c-2.548,0-4.62-2.074-4.62-4.624
			S143.627,222.605,146.175,222.605z"/>
		<path fill="#FFFFFF" d="M146.175,38.124c-10.65,0-20.118,6.16-24.494,15.633c-19.525,5.189-37.172,16.652-49.958,32.509
			c-12.426,15.415-19.767,34.45-20.972,54.141h-21.29l35.661,51.19l35.665-51.19H79.924c2.301-26.586,20.366-49.342,45.889-57.542
			c5.084,5.865,12.421,9.259,20.362,9.259c14.89,0,27.004-12.111,27.004-27C173.18,50.235,161.065,38.124,146.175,38.124z
			 M143.575,61.304c0.768-0.525,1.667-0.803,2.6-0.803c2.551,0,4.628,2.075,4.628,4.622c0,2.551-2.077,4.626-4.628,4.626
			c-0.813,0-1.592-0.21-2.306-0.625c-1.449-0.843-2.314-2.337-2.314-4C141.555,63.598,142.31,62.171,143.575,61.304z"/>
		<path d="M159.292,227.092c0,7.21-5.848,13.06-13.064,13.06c-7.208,0-13.058-5.85-13.058-13.06c0-7.216,5.85-13.063,13.058-13.063
			C153.444,214.029,159.292,219.876,159.292,227.092z"/>
		<path d="M159.292,65.149c0,7.207-5.848,13.057-13.064,13.057c-7.208,0-13.058-5.85-13.058-13.057
			c0-7.217,5.85-13.063,13.058-13.063C153.444,52.086,159.292,57.932,159.292,65.149z"/>
	</g>
	<g>
		<path d="M439.69,183.8c0,6.755-0.471,12.209-1.412,16.359c-1.494,6.645-5.371,12.596-11.626,17.856
			c-7.919,6.644-18.438,9.967-31.559,9.967c-13.731,0-24.665-3.627-32.803-10.88c-5.428-4.817-8.888-9.856-10.382-15.114
			c-0.165-0.557-0.387-1.719-0.665-3.488h30.562c0.886,2.52,2.077,4.329,3.571,5.426c2.437,1.808,5.537,2.713,9.303,2.713
			c6.312,0,11.155-2.236,14.533-6.707c2.104-2.813,3.156-6.845,3.156-12.086v-7.284c-3.261,2.988-6,5.093-8.211,6.312
			c-4.588,2.546-10.006,3.818-16.254,3.818c-7.854,0-14.875-2.02-21.066-6.062c-6.358-4.153-10.921-9.826-13.684-17.024
			c-1.881-4.872-2.82-10.16-2.82-15.862c0-12.623,4.008-22.893,12.026-30.812c7.463-7.363,16.448-11.045,26.954-11.045
			c5.583,0,10.56,1.134,14.929,3.404c2.596,1.385,5.307,3.655,8.127,6.811v-8.056h27.324V183.8z M413.695,150.332
			c0-4.929-1.682-9.164-5.042-12.707c-3.36-3.542-7.495-5.316-12.398-5.316c-5.454,0-9.918,2.106-13.389,6.312
			c-2.756,3.38-4.132,7.282-4.132,11.712c0,4.928,1.693,9.148,5.082,12.664c3.389,3.517,7.536,5.273,12.439,5.273
			c4.85,0,8.966-1.757,12.357-5.273C412,159.48,413.695,155.26,413.695,150.332z"/>
		<path d="M539.597,189.114h-27.323v-38.976c0-6.854-0.771-11.389-2.311-13.601c-2.257-3.263-5.642-4.893-10.151-4.893
			c-4.183,0-7.648,1.404-10.399,4.213c-2.533,2.589-3.798,6.583-3.798,11.981v41.274h-27.323V75.653h27.323v46.109
			c3.15-3.653,6.053-6.228,8.708-7.724c4.367-2.491,9.757-3.736,16.17-3.736c8.18,0,14.925,2.27,20.233,6.81
			c5.914,5.095,8.872,12.736,8.872,22.921V189.114z"/>
		<path d="M592.75,159.135h-36.376v-17.606h36.376V159.135z"/>
		<path d="M672.807,163.12c0,8.195-2.936,14.896-8.803,20.098c-6.59,5.868-15.862,8.803-27.821,8.803
			c-10.577,0-20.846-2.96-30.812-8.886l9.883-19.268c7.785,5.096,15.017,7.642,21.699,7.642c5.687,0,8.531-1.966,8.531-5.897
			c0-2.048-0.993-3.625-2.981-4.732c-1.272-0.719-4.143-1.579-8.617-2.576c-5.025-1.105-8.313-1.962-9.858-2.57
			c-5.523-2.153-9.252-5.524-11.186-10.113c-1.049-2.487-1.573-5.473-1.573-8.955c0-6.741,2.296-12.629,6.892-17.658
			c5.925-6.468,15.06-9.701,27.406-9.701c8.582,0,16.914,1.662,24.998,4.982l-9.218,17.606c-5.077-2.656-9.93-3.985-14.563-3.985
			c-5.461,0-8.193,1.897-8.193,5.695c0,1.731,1.105,3.126,3.315,4.188c0.993,0.497,3.92,1.246,8.78,2.241
			c7.125,1.496,12.372,3.877,15.742,7.144C670.68,151.272,672.807,156.589,672.807,163.12z"/>
		<path d="M767.981,189.114h-27.323v-38.976c0-6.854-0.772-11.389-2.311-13.601c-2.257-3.263-5.642-4.893-10.151-4.893
			c-4.183,0-7.648,1.404-10.398,4.213c-2.533,2.589-3.798,6.583-3.798,11.981v41.274h-27.323V75.653h27.323v46.109
			c3.15-3.653,6.053-6.228,8.708-7.724c4.367-2.491,9.757-3.736,16.17-3.736c8.18,0,14.925,2.27,20.232,6.81
			c5.914,5.095,8.873,12.736,8.873,22.921V189.114z"/>
		<path d="M814.42,89.833c0,4.006-1.376,7.385-4.123,10.132c-2.749,2.75-6.126,4.123-10.134,4.123c-3.956,0-7.307-1.386-10.057-4.16
			c-2.747-2.775-4.121-6.14-4.121-10.095c0-3.956,1.374-7.309,4.121-10.056c2.75-2.75,6.102-4.125,10.057-4.125
			c3.956,0,7.322,1.375,10.095,4.125C813.033,82.524,814.42,85.877,814.42,89.833z M813.823,189.114H786.5v-77.068h27.324V189.114z"
			/>
		<path d="M922.368,150.705c0,13.164-4.563,23.672-13.685,31.525c-7.243,6.252-15.565,9.375-24.964,9.375
			c-5.474,0-10.616-1.162-15.428-3.488c-2.764-1.328-5.611-3.514-8.542-6.559v46.092h-27.324V112.046h27.324v8.636
			c2.431-3.21,5.058-5.591,7.879-7.142c4.645-2.602,9.924-3.902,15.842-3.902c9.565,0,18.081,3.291,25.546,9.873
			C917.919,127.363,922.368,137.763,922.368,150.705z M893.967,150.623c0-4.384-1.38-8.188-4.134-11.405
			c-3.474-4.106-7.936-6.16-13.39-6.16c-4.905,0-9.051,1.693-12.441,5.078c-3.389,3.386-5.082,7.548-5.082,12.487
			c0,4.883,1.706,9.031,5.123,12.444s7.551,5.118,12.4,5.118c5.454,0,9.89-2.052,13.307-6.16
			C892.561,158.697,893.967,154.896,893.967,150.623z"/>
		<path d="M966.798,90.894c0,4.307-1.479,7.938-4.432,10.891c-2.953,2.955-6.584,4.431-10.891,4.431
			c-4.253,0-7.855-1.488-10.811-4.472c-2.953-2.981-4.429-6.598-4.429-10.85c0-4.252,1.476-7.855,4.429-10.808
			c2.955-2.955,6.558-4.433,10.811-4.433c4.25,0,7.867,1.478,10.849,4.433C965.306,83.039,966.798,86.641,966.798,90.894z
			 M965.137,189.114h-27.323v-77.068h27.323V189.114z"/>
		<path d="M1029.749,134.385h-15.529v54.729h-27.324v-54.729h-8.968v-22.339h8.968V88.875h27.324v23.171h15.529V134.385z"/>
	</g>
</g>
</svg>
