<?xml version="1.0" encoding="utf-8"?>
<!-- Generator: Adobe Illustrator 16.0.0, SVG Export Plug-In . SVG Version: 6.00 Build 0)  -->
<!DOCTYPE svg PUBLIC "-//W3C//DTD SVG 1.1//EN" "http://www.w3.org/Graphics/SVG/1.1/DTD/svg11.dtd" [
	<!ENTITY ns_extend "http://ns.adobe.com/Extensibility/1.0/">
	<!ENTITY ns_ai "http://ns.adobe.com/AdobeIllustrator/10.0/">
	<!ENTITY ns_graphs "http://ns.adobe.com/Graphs/1.0/">
	<!ENTITY ns_vars "http://ns.adobe.com/Variables/1.0/">
	<!ENTITY ns_imrep "http://ns.adobe.com/ImageReplacement/1.0/">
	<!ENTITY ns_sfw "http://ns.adobe.com/SaveForWeb/1.0/">
	<!ENTITY ns_custom "http://ns.adobe.com/GenericCustomNamespace/1.0/">
	<!ENTITY ns_adobe_xpath "http://ns.adobe.com/XPath/1.0/">
]>
<svg version="1.1" id="Layer_1" xmlns:x="&ns_extend;" xmlns:i="&ns_ai;" xmlns:graph="&ns_graphs;"
	 xmlns="http://www.w3.org/2000/svg" xmlns:xlink="http://www.w3.org/1999/xlink" x="0px" y="0px" width="292.358px"
	 height="292.357px" viewBox="0 0 292.358 292.357" enable-background="new 0 0 292.358 292.357" xml:space="preserve">
<metadata>
	<sfw  xmlns="&ns_sfw;">
		<slices></slices>
		<sliceSourceBounds  width="292.358" height="292.357" x="145.251" y="-764.207" bottomLeftOrigin="true"></sliceSourceBounds>
	</sfw>
</metadata>
<g>
	<path d="M292.358,146.179c0,80.733-65.446,146.179-146.183,146.179C65.446,292.357,0,226.912,0,146.179S65.446,0,146.175,0
		C226.912,0,292.358,65.445,292.358,146.179z"/>
	<path fill="#FFFFFF" d="M227.231,100.759l-35.663,51.191h20.864c-2.304,26.585-20.364,49.339-45.887,57.542
		c-5.082-5.867-12.423-9.262-20.37-9.262c-14.886,0-26.995,12.113-26.995,27.001s12.109,27,26.995,27
		c10.658,0,20.127-6.161,24.502-15.635c19.523-5.188,37.172-16.652,49.955-32.507c12.428-15.415,19.769-34.45,20.972-54.14h21.29
		L227.231,100.759z M146.175,222.605c0.817,0,1.596,0.212,2.311,0.627c1.451,0.845,2.317,2.339,2.317,3.999
		c0,1.524-0.755,2.953-2.02,3.818c-0.77,0.527-1.671,0.806-2.608,0.806c-2.548,0-4.62-2.074-4.62-4.624
		S143.627,222.605,146.175,222.605z"/>
	<path fill="#FFFFFF" d="M146.175,38.124c-10.65,0-20.118,6.16-24.494,15.633c-19.525,5.189-37.172,16.652-49.958,32.509
		c-12.426,15.415-19.767,34.45-20.972,54.141h-21.29l35.661,51.19l35.665-51.19H79.924c2.301-26.586,20.366-49.342,45.889-57.542
		c5.084,5.865,12.421,9.259,20.362,9.259c14.89,0,27.004-12.111,27.004-27C173.18,50.235,161.065,38.124,146.175,38.124z
		 M143.575,61.304c0.768-0.525,1.667-0.803,2.6-0.803c2.551,0,4.628,2.075,4.628,4.622c0,2.551-2.077,4.626-4.628,4.626
		c-0.813,0-1.592-0.21-2.306-0.625c-1.449-0.843-2.314-2.337-2.314-4C141.555,63.598,142.31,62.171,143.575,61.304z"/>
	<path d="M159.292,227.092c0,7.21-5.848,13.06-13.064,13.06c-7.208,0-13.058-5.85-13.058-13.06c0-7.216,5.85-13.063,13.058-13.063
		C153.444,214.029,159.292,219.876,159.292,227.092z"/>
	<path d="M159.292,65.149c0,7.207-5.848,13.057-13.064,13.057c-7.208,0-13.058-5.85-13.058-13.057
		c0-7.217,5.85-13.063,13.058-13.063C153.444,52.086,159.292,57.932,159.292,65.149z"/>
</g>
</svg>
